<svg width="41" height="41" viewBox="0 0 41 41" fill="none" xmlns="http://www.w3.org/2000/svg">
<path d="M7.16666 12.1667V28.8333C7.16666 32.5167 13.1367 35.5 20.5 35.5C27.8633 35.5 33.8333 32.5167 33.8333 28.8333V12.1667M7.16666 12.1667C7.16666 15.85 13.1367 18.8333 20.5 18.8333C27.8633 18.8333 33.8333 15.85 33.8333 12.1667M7.16666 12.1667C7.16666 8.48333 13.1367 5.5 20.5 5.5C27.8633 5.5 33.8333 8.48333 33.8333 12.1667M33.8333 20.5C33.8333 24.1833 27.8633 27.1667 20.5 27.1667C13.1367 27.1667 7.16666 24.1833 7.16666 20.5" stroke="url(#paint0_linear_141_76)" stroke-width="3" stroke-linecap="round" stroke-linejoin="round"/>
<defs>
<linearGradient id="paint0_linear_141_76" x1="20.5" y1="5.5" x2="20.5" y2="35.5" gradientUnits="userSpaceOnUse">
<stop stop-color="#E8C87E"/>
<stop offset="1" stop-color="#AB8447"/>
</linearGradient>
</defs>
</svg>
