<svg width="111" height="17" viewBox="0 0 111 17" fill="none" xmlns="http://www.w3.org/2000/svg">
<path opacity="0.25" d="M8.17834 16.61C7.16634 16.61 6.19834 16.434 5.27434 16.082C4.36501 15.7153 3.55834 15.1873 2.85434 14.498C2.15034 13.794 1.59301 12.9507 1.18234 11.968C0.786344 10.9707 0.588344 9.834 0.588344 8.558C0.588344 7.458 0.793677 6.43867 1.20434 5.5C1.61501 4.56133 2.17968 3.74 2.89834 3.036C3.63168 2.31733 4.48234 1.76 5.45034 1.364C6.41834 0.967999 7.46701 0.769999 8.59634 0.769999C10.0043 0.769999 11.2803 1.078 12.4243 1.694C13.5683 2.29533 14.419 3.124 14.9763 4.18L11.7863 6.622C11.4783 6.006 11.0163 5.51467 10.4003 5.148C9.78434 4.76667 9.13168 4.576 8.44234 4.576C7.92901 4.576 7.45968 4.67867 7.03434 4.884C6.60901 5.08933 6.23501 5.37533 5.91234 5.742C5.60434 6.10867 5.36234 6.54867 5.18634 7.062C5.02501 7.56067 4.94434 8.11067 4.94434 8.712C4.94434 9.328 5.03234 9.88533 5.20834 10.384C5.38434 10.8827 5.62634 11.3153 5.93434 11.682C6.25701 12.034 6.63834 12.3127 7.07834 12.518C7.51834 12.7087 8.00968 12.804 8.55234 12.804C9.24168 12.804 9.90168 12.6353 10.5323 12.298C11.163 11.946 11.735 11.4547 12.2483 10.824V15.004C11.075 16.0747 9.71834 16.61 8.17834 16.61ZM12.0283 11.264H9.14634V8.184H15.5703V16.5H12.0283V11.264ZM18.128 16.5V0.879999H25.3C26.0627 0.879999 26.7667 1.034 27.412 1.342C28.0574 1.65 28.6147 2.068 29.084 2.596C29.5534 3.10933 29.9127 3.68867 30.162 4.334C30.426 4.97933 30.558 5.632 30.558 6.292C30.558 6.89333 30.47 7.47267 30.294 8.03C30.118 8.58733 29.8614 9.10067 29.524 9.57C29.1867 10.0247 28.7834 10.4207 28.314 10.758L31.614 16.5H26.906L24.156 11.704H22.418V16.5H18.128ZM22.418 7.964H25.124C25.3 7.964 25.4687 7.898 25.63 7.766C25.7914 7.634 25.9234 7.44333 26.026 7.194C26.1434 6.94467 26.202 6.644 26.202 6.292C26.202 5.92533 26.136 5.62467 26.004 5.39C25.8867 5.14067 25.7327 4.95 25.542 4.818C25.366 4.686 25.19 4.62 25.014 4.62H22.418V7.964ZM37.0217 0.879999H41.8177L46.7897 16.5H42.4337L41.4877 13.442H37.3297L36.4057 16.5H32.0277L37.0217 0.879999ZM40.8057 10.582L39.4197 5.082L37.9677 10.582H40.8057ZM60.3415 16.5V8.272L57.7235 14.058H55.4355L52.8175 8.272V16.5H48.5275V0.879999H53.2135L56.5795 8.228L59.9675 0.879999H64.6315V16.5H60.3415ZM67.7449 16.5V0.879999H74.4769C75.2396 0.879999 75.9436 1.034 76.5889 1.342C77.2342 1.65 77.7916 2.068 78.2609 2.596C78.7302 3.10933 79.0896 3.68867 79.3389 4.334C79.6029 4.97933 79.7349 5.632 79.7349 6.292C79.7349 7.216 79.5149 8.08867 79.0749 8.91C78.6496 9.73133 78.0482 10.406 77.2709 10.934C76.5082 11.4473 75.6136 11.704 74.5869 11.704H72.0349V16.5H67.7449ZM72.0349 7.964H74.3009C74.4769 7.964 74.6456 7.91267 74.8069 7.81C74.9682 7.70733 75.1002 7.53133 75.2029 7.282C75.3202 7.03267 75.3789 6.70267 75.3789 6.292C75.3789 5.852 75.3129 5.51467 75.1809 5.28C75.0636 5.03067 74.9096 4.862 74.7189 4.774C74.5429 4.67133 74.3669 4.62 74.1909 4.62H72.0349V7.964ZM88.7119 16.632C87.4653 16.632 86.3946 16.4267 85.4999 16.016C84.6053 15.6053 83.8719 15.0407 83.2999 14.322C82.7426 13.6033 82.3319 12.782 82.0679 11.858C81.8039 10.9193 81.6719 9.93667 81.6719 8.91V0.879999H85.9619V8.91C85.9619 9.42333 86.0133 9.91467 86.1159 10.384C86.2186 10.8533 86.3799 11.2713 86.5999 11.638C86.8199 12.0047 87.0986 12.298 87.4359 12.518C87.7879 12.7233 88.2133 12.826 88.7119 12.826C89.2253 12.826 89.6579 12.7233 90.0099 12.518C90.3619 12.298 90.6406 12.0047 90.8459 11.638C91.0659 11.2567 91.2273 10.8313 91.3299 10.362C91.4326 9.89267 91.4839 9.40867 91.4839 8.91V0.879999H95.7739V8.91C95.7739 9.99533 95.6273 11.0073 95.3339 11.946C95.0553 12.8847 94.6299 13.706 94.0579 14.41C93.4859 15.114 92.7526 15.664 91.8579 16.06C90.9779 16.4413 89.9293 16.632 88.7119 16.632ZM108.142 5.984C108.142 5.984 108.017 5.91067 107.768 5.764C107.518 5.61733 107.188 5.456 106.778 5.28C106.367 5.08933 105.92 4.92067 105.436 4.774C104.952 4.62733 104.475 4.554 104.006 4.554C103.639 4.554 103.338 4.61267 103.104 4.73C102.869 4.84733 102.752 5.04533 102.752 5.324C102.752 5.588 102.869 5.80067 103.104 5.962C103.338 6.12333 103.668 6.27 104.094 6.402C104.534 6.534 105.054 6.69533 105.656 6.886C106.624 7.17933 107.46 7.51667 108.164 7.898C108.868 8.27933 109.41 8.77067 109.792 9.372C110.173 9.95867 110.364 10.7433 110.364 11.726C110.364 12.6647 110.195 13.4567 109.858 14.102C109.52 14.7327 109.066 15.2387 108.494 15.62C107.922 16.0013 107.284 16.28 106.58 16.456C105.876 16.6173 105.157 16.698 104.424 16.698C103.676 16.698 102.891 16.6247 102.07 16.478C101.263 16.3167 100.478 16.104 99.7155 15.84C98.9529 15.5613 98.2562 15.2387 97.6255 14.872L99.4735 11.11C99.4735 11.11 99.6202 11.198 99.9135 11.374C100.207 11.55 100.596 11.748 101.08 11.968C101.564 12.188 102.099 12.386 102.686 12.562C103.287 12.738 103.888 12.826 104.49 12.826C104.959 12.826 105.282 12.7673 105.458 12.65C105.648 12.518 105.744 12.3493 105.744 12.144C105.744 11.836 105.582 11.6013 105.26 11.44C104.937 11.264 104.512 11.1027 103.984 10.956C103.47 10.7947 102.898 10.6113 102.268 10.406C101.358 10.098 100.61 9.75333 100.024 9.372C99.4369 8.976 99.0042 8.514 98.7255 7.986C98.4469 7.44333 98.3075 6.79067 98.3075 6.028C98.3075 4.86933 98.5789 3.90133 99.1215 3.124C99.6642 2.34667 100.376 1.76 101.256 1.364C102.15 0.953333 103.111 0.748 104.138 0.748C104.9 0.748 105.634 0.843333 106.338 1.034C107.056 1.21 107.724 1.43 108.34 1.694C108.97 1.958 109.52 2.20733 109.99 2.442L108.142 5.984Z" fill="#808285"/>
</svg>
